<svg xmlns="http://www.w3.org/2000/svg" viewBox="0 0 400 400">
  <path
    d="M 282.33594,235.52158 A 18.173771,24.660032 0 1 1 245.9884,235.52158 A 18.173771,24.660032 0 1 1 282.33594,235.52158 z"
    style="fill:#d4edff; fill-opacity:1; fill-rule:evenodd; stroke:#000000; stroke-width:2; stroke-linecap:butt; stroke-linejoin:miter; visibility:visible; display:inline; overflow:visible; enable-background:accumulate"
    transform="matrix(1.049195,0,0,0.9990346,-170.19043,96.45843)"
  />
  <path
    d="M 282.33594,235.52158 A 18.173771,24.660032 0 1 1 245.9884,235.52158 A 18.173771,24.660032 0 1 1 282.33594,235.52158 z"
    style="fill:#d4edff; fill-opacity:1; fill-rule:evenodd; stroke:#000000; stroke-width:2; stroke-linecap:butt; stroke-linejoin:miter; visibility:visible; display:inline; overflow:visible; enable-background:accumulate"
    transform="matrix(1.049195,0,0,0.9990346,41.90513,91.49556)"
  />
  <path
    d="M 288.08282,236.5746 A 24.922756,29.163086 0 1 1 238.23731,236.5746 A 24.922756,29.163086 0 1 1 288.08282,236.5746 z"
    style="fill:#141e37; fill-opacity:1; fill-rule:evenodd; stroke:#000000; stroke-width:1.90523839; stroke-linecap:butt; stroke-linejoin:miter; visibility:visible; display:inline; overflow:visible; enable-background:accumulate"
    transform="matrix(1.0451387,0,0,1.0543564,44.57035,76.79474)"
  />
  <path
    d="M 288.08282,236.5746 A 24.922756,29.163086 0 1 1 238.23731,236.5746 A 24.922756,29.163086 0 1 1 288.08282,236.5746 z"
    style="fill:#141e37; fill-opacity:1; fill-rule:evenodd; stroke:#000000; stroke-width:1.90523839; stroke-linecap:butt; stroke-linejoin:miter; visibility:visible; display:inline; overflow:visible; enable-background:accumulate"
    transform="matrix(1.0451387,0,0,1.0543564,-167.52521,81.75761)"
  />
</svg>
